<svg width="1014" height="523" viewBox="0 0 1014 523" fill="none" xmlns="http://www.w3.org/2000/svg">
<path d="M233.895 384.158L194.625 454.675H211.695L251.84 384.158H233.895Z" fill="white"/>
<path d="M155.354 384.158H137.408L185.968 469.454V520.124H203.28V470.942L194.624 454.675L155.354 384.158Z" fill="white"/>
<path d="M366.063 493.522L288.579 384.158H272.956V520.124H290.268V410.971L367.541 520.124H383.376V384.158H366.063V493.522Z" fill="white"/>
<path d="M559.457 384.158H542.145V520.124H631.874V506.612H559.457V384.158Z" fill="white"/>
<path d="M894.073 459.85C890.063 454.99 884.613 451.72 877.713 450.03C883.063 447.5 887.253 443.73 890.273 438.73C893.303 433.74 894.813 427.51 894.813 420.05C894.813 408.65 891.683 399.82 885.423 393.55C879.153 387.29 869.343 384.16 855.973 384.16H793.053V520.12H859.343C872.713 520.12 882.853 516.96 889.753 510.62C896.643 504.29 900.093 494.51 900.093 481.28C900.093 471.85 898.093 464.7 894.073 459.85ZM810.363 397.46H851.743C862.303 397.46 869.413 399.46 873.073 403.48C876.733 407.49 878.563 413.43 878.563 421.32C878.563 427.93 876.763 433.32 873.173 437.47C869.583 441.62 863.493 443.7 854.913 443.7H810.363V397.46ZM876.453 501.02C872.223 505.03 865.543 507.03 856.393 507.03H810.363V456.79H853.643C864.763 456.79 872.403 458.79 876.553 462.8C880.703 466.81 882.783 472.76 882.783 480.64C882.783 490.22 880.673 497.01 876.453 501.02Z" fill="white"/>
<path d="M1009.46 467.342C1006.93 462.275 1002.56 457.878 996.37 454.147C990.175 450.419 981.519 447.216 970.402 444.541C961.112 442.291 953.861 440.143 948.656 438.102C943.446 436.063 939.752 433.599 937.571 430.712C935.387 427.828 934.299 424.061 934.299 419.417C934.299 411.114 937.393 405.271 943.588 401.893C949.78 398.515 958.647 396.826 970.19 396.826C976.523 396.826 982.646 397.321 988.558 398.304C994.47 399.29 999.959 400.699 1005.03 402.526V387.325C1001.37 386.058 996.159 384.864 989.403 383.736C982.647 382.611 975.327 382.047 967.446 382.047C950.413 382.047 937.745 385.392 929.442 392.076C921.136 398.762 916.986 407.877 916.986 419.417C916.986 429.271 920.011 437.119 926.065 442.958C932.115 448.8 942.602 453.55 957.523 457.209C966.951 459.462 974.483 461.679 980.114 463.859C985.742 466.043 989.789 468.715 992.253 471.882C994.714 475.049 995.947 479.308 995.947 484.655C995.947 493.242 992.919 499.189 986.869 502.495C980.815 505.804 971.737 507.457 959.634 507.457C952.593 507.457 945.733 506.86 939.049 505.663C932.362 504.469 926.064 502.743 920.153 500.49V515.903C930.568 520.125 944.221 522.237 961.112 522.237C978.424 522.237 991.442 518.964 1000.17 512.419C1008.9 505.874 1013.26 496.62 1013.26 484.656C1013.26 478.182 1011.99 472.41 1009.46 467.342Z" fill="white"/>
<path d="M520.399 384.158H500.553L462.761 439.684L481.942 439.783L520.399 384.158Z" fill="white"/>
<path d="M482.05 465.172L462.761 439.684L424.968 384.158H405.123L452.415 452.563L404.489 520.124H424.547L462.761 465.864L500.975 520.124H521.032L482.05 465.172Z" fill="white"/>
<path d="M123.683 384.158H105.737L61.8223 502.601H78.8082L123.683 384.158Z" fill="white"/>
<path d="M18.1199 384.158H0.173828L51.8999 520.124H68.7518L61.8229 502.601L18.1199 384.158Z" fill="white"/>
<path d="M771.271 520.124H753.325L709.41 401.681H726.396L771.271 520.124Z" fill="white"/>
<path d="M665.707 520.124H647.761L699.487 384.158H716.339L709.41 401.681L665.707 520.124Z" fill="white"/>
<path d="M692.263 0.579529L620.513 0.269531L580.453 49.9396L546.163 0.329529L441.193 0.619568L531.573 134.34L579.533 74.8796L595.863 98.4996L547.913 159.19L591.823 226.78L649.463 149.78L614.433 99.0995L692.263 0.579529ZM532.633 109.23L469.273 15.4796L538.343 15.2896L570.673 62.0695L532.633 109.23ZM589.313 62.7496L627.633 15.2396L661.533 15.3796L605.543 86.2396L589.313 62.7496ZM631.063 149.43L592.693 200.7L566.283 160.04L604.743 111.36L631.063 149.43Z" fill="white"/>
<path d="M414.713 0.259766H321.173L526.243 309.97L575.243 247.97L414.713 0.259766ZM348.973 15.1998H406.593L556.883 247.11L527.313 284.52L348.973 15.1998Z" fill="white"/>
</svg>
