<svg width="408.401" height="90" viewBox="0 0 408.401 90" xmlns="http://www.w3.org/2000/svg"><g id="svgGroup" stroke-linecap="round" fill-rule="evenodd" font-size="9pt" stroke="#fff" stroke-width="0.25mm" fill="#fff" style="stroke:#fff;stroke-width:0.25mm;fill:#fff"><path d="M 10 3 L 10 0 L 51 0 L 25.5 70.1 L 0 0 L 3.2 0 L 25.5 61.3 L 46.7 3 L 10 3 Z M 118.6 70 L 115.6 70 L 115.6 12 L 118.6 12 L 151.2 64.5 L 151.2 12 L 154.2 12 L 154.2 70 L 151.2 70 L 118.6 17.4 L 118.6 70 Z M 65.7 15 L 65.7 12 L 104.4 12 L 80.9 67.5 L 80.9 90 L 77.9 90 L 77.9 67.5 L 54.4 12 L 57.6 12 L 79.4 63.3 L 99.9 15 L 65.7 15 Z M 269.2 70 L 269.2 67 L 301.8 67 L 281.3 18.7 L 259.5 70 L 256.3 70 L 281.3 11 L 306.3 70 L 269.2 70 Z M 404.2 16.3 L 402.2 18.5 A 14.46 14.46 0 0 0 397.041 15.329 Q 394.794 14.493 392.001 14.114 A 37.287 37.287 0 0 0 387 13.8 A 28.804 28.804 0 0 0 381.306 14.312 Q 372.476 16.101 371.517 24.146 A 17.354 17.354 0 0 0 371.4 26.2 A 9.736 9.736 0 0 0 372.154 30.088 Q 373.056 32.184 375.037 33.726 A 11.603 11.603 0 0 0 375.2 33.85 A 24.593 24.593 0 0 0 380.294 36.758 A 32.299 32.299 0 0 0 384.45 38.2 Q 389.9 39.7 395.35 41.35 A 23.488 23.488 0 0 1 401.929 44.47 A 21.329 21.329 0 0 1 404.6 46.65 A 12.201 12.201 0 0 1 408.307 54.411 A 16.808 16.808 0 0 1 408.4 56.2 Q 408.4 62.756 403.254 66.785 A 17.06 17.06 0 0 1 402.7 67.2 A 19.036 19.036 0 0 1 397.242 69.85 Q 394.68 70.654 391.563 71.012 A 47.07 47.07 0 0 1 386.2 71.3 Q 380.9 71.3 375.75 69.9 Q 372.168 68.926 369.868 67.324 A 10.848 10.848 0 0 1 368.1 65.8 L 370.1 63.6 A 15.694 15.694 0 0 0 375.557 66.792 Q 377.941 67.64 380.884 68.011 A 39.371 39.371 0 0 0 385.8 68.3 A 41.887 41.887 0 0 0 391.141 67.983 Q 393.827 67.636 396.015 66.912 A 16.075 16.075 0 0 0 400.45 64.7 A 15.203 15.203 0 0 0 403.007 62.395 Q 405.4 59.638 405.4 56.3 A 10.639 10.639 0 0 0 404.579 52.062 A 10.105 10.105 0 0 0 401.6 48.2 A 23.597 23.597 0 0 0 395.902 44.799 A 29.871 29.871 0 0 0 392.35 43.55 Q 386.9 42 381.45 40.35 Q 376 38.7 372.2 35.2 Q 368.4 31.7 368.4 26 A 18.215 18.215 0 0 1 368.928 21.472 A 11.95 11.95 0 0 1 373.55 14.55 A 18.967 18.967 0 0 1 380.741 11.395 Q 383.431 10.805 386.551 10.8 A 33.172 33.172 0 0 1 386.6 10.8 A 44.201 44.201 0 0 1 392.679 11.188 Q 399.808 12.181 403.61 15.715 A 12.871 12.871 0 0 1 404.2 16.3 Z M 203.8 12 L 188.4 38.7 L 206.4 70 L 202.9 70 L 186.6 41.8 L 170.3 70 L 166.8 70 L 184.8 38.7 L 169.4 12 L 172.9 12 L 186.6 35.7 L 200.3 12 L 203.8 12 Z M 222 67 L 252.4 67 L 252.4 70 L 219 70 L 219 12 L 222 12 L 222 67 Z M 332.1 70 L 317.7 70 L 317.7 12 L 328.7 12 A 54.448 54.448 0 0 1 335.199 12.361 Q 342.296 13.217 346.55 16.1 A 14.471 14.471 0 0 1 350.353 19.761 Q 352.495 22.823 352.595 26.897 A 16.369 16.369 0 0 1 352.6 27.3 Q 352.6 35.8 345.1 39.6 A 20.889 20.889 0 0 1 348.952 41.356 Q 351.649 42.958 353.3 45.25 A 14.356 14.356 0 0 1 355.997 53.576 A 17.582 17.582 0 0 1 356 53.9 A 13.671 13.671 0 0 1 351.446 64.393 A 17.755 17.755 0 0 1 350.05 65.55 Q 344.128 69.979 332.212 70 A 64.421 64.421 0 0 1 332.1 70 Z M 320.7 67 L 332.1 67 Q 339.919 67 345.567 64.474 A 23.338 23.338 0 0 0 346.95 63.8 Q 352.553 60.836 352.967 54.871 A 14.024 14.024 0 0 0 353 53.9 A 9.822 9.822 0 0 0 352.528 50.978 Q 352.145 49.747 351.451 48.442 A 20.269 20.269 0 0 0 350.7 47.15 A 12.247 12.247 0 0 0 346.261 42.999 A 16.812 16.812 0 0 0 343.6 41.8 L 338.4 40 L 343.2 37.5 A 12.014 12.014 0 0 0 346.244 35.212 A 15.539 15.539 0 0 0 347.65 33.55 A 10.026 10.026 0 0 0 349.566 28.239 A 12.635 12.635 0 0 0 349.6 27.3 A 10.289 10.289 0 0 0 348.666 22.843 Q 347.233 19.816 343.6 18 A 26.48 26.48 0 0 0 337.338 15.847 Q 334.406 15.212 331.013 15.053 A 49.492 49.492 0 0 0 328.7 15 L 320.7 15 L 320.7 67 Z" vector-effect="non-scaling-stroke"/></g></svg>