<svg width="300" height="150" viewBox="0 0 300 150" fill="none" xmlns="http://www.w3.org/2000/svg">
<path d="M10.7148 5.71429V10.7143M10.7148 15.7143V10.7143M10.7148 10.7143H15.7148M10.7148 10.7143H5.71484"  stroke-width="0.714286"/>
<path d="M10.7148 27.1429V32.1429M10.7148 37.1429V32.1429M10.7148 32.1429H15.7148M10.7148 32.1429H5.71484"  stroke-width="0.714286"/>
<path d="M10.7148 48.5714V53.5714M10.7148 58.5714V53.5714M10.7148 53.5714H15.7148M10.7148 53.5714H5.71484"  stroke-width="0.714286"/>
<path d="M10.7148 70V75M10.7148 80V75M10.7148 75H15.7148M10.7148 75H5.71484"  stroke-width="0.714286"/>
<path d="M10.7148 91.4286V96.4286M10.7148 101.429V96.4286M10.7148 96.4286H15.7148M10.7148 96.4286H5.71484"  stroke-width="0.714286"/>
<path d="M10.7148 112.857V117.857M10.7148 122.857V117.857M10.7148 117.857H15.7148M10.7148 117.857H5.71484"  stroke-width="0.714286"/>
<path d="M10.7148 134.286V139.286M10.7148 144.286V139.286M10.7148 139.286H15.7148M10.7148 139.286H5.71484"  stroke-width="0.714286"/>
<path d="M32.1445 5.71429V10.7143M32.1445 15.7143V10.7143M32.1445 10.7143H37.1445M32.1445 10.7143H27.1445"  stroke-width="0.714286"/>
<path d="M32.1445 27.1429V32.1429M32.1445 37.1429V32.1429M32.1445 32.1429H37.1445M32.1445 32.1429H27.1445"  stroke-width="0.714286"/>
<path d="M32.1445 48.5714V53.5714M32.1445 58.5714V53.5714M32.1445 53.5714H37.1445M32.1445 53.5714H27.1445"  stroke-width="0.714286"/>
<path d="M32.1445 70V75M32.1445 80V75M32.1445 75H37.1445M32.1445 75H27.1445"  stroke-width="0.714286"/>
<path d="M32.1445 91.4286V96.4286M32.1445 101.429V96.4286M32.1445 96.4286H37.1445M32.1445 96.4286H27.1445"  stroke-width="0.714286"/>
<path d="M32.1445 112.857V117.857M32.1445 122.857V117.857M32.1445 117.857H37.1445M32.1445 117.857H27.1445"  stroke-width="0.714286"/>
<path d="M32.1445 134.286V139.286M32.1445 144.286V139.286M32.1445 139.286H37.1445M32.1445 139.286H27.1445"  stroke-width="0.714286"/>
<path d="M53.5703 5.71429V10.7143M53.5703 15.7143V10.7143M53.5703 10.7143H58.5703M53.5703 10.7143H48.5703"  stroke-width="0.714286"/>
<path d="M53.5703 27.1429V32.1429M53.5703 37.1429V32.1429M53.5703 32.1429H58.5703M53.5703 32.1429H48.5703"  stroke-width="0.714286"/>
<path d="M53.5703 48.5714V53.5714M53.5703 58.5714V53.5714M53.5703 53.5714H58.5703M53.5703 53.5714H48.5703"  stroke-width="0.714286"/>
<path d="M53.5703 70V75M53.5703 80V75M53.5703 75H58.5703M53.5703 75H48.5703"  stroke-width="0.714286"/>
<path d="M53.5703 91.4286V96.4286M53.5703 101.429V96.4286M53.5703 96.4286H58.5703M53.5703 96.4286H48.5703"  stroke-width="0.714286"/>
<path d="M53.5703 112.857V117.857M53.5703 122.857V117.857M53.5703 117.857H58.5703M53.5703 117.857H48.5703"  stroke-width="0.714286"/>
<path d="M53.5703 134.286V139.286M53.5703 144.286V139.286M53.5703 139.286H58.5703M53.5703 139.286H48.5703"  stroke-width="0.714286"/>
<path d="M75 5.71429V10.7143M75 15.7143V10.7143M75 10.7143H80M75 10.7143H70"  stroke-width="0.714286"/>
<path d="M75 27.1429V32.1429M75 37.1429V32.1429M75 32.1429H80M75 32.1429H70"  stroke-width="0.714286"/>
<path d="M75 48.5714V53.5714M75 58.5714V53.5714M75 53.5714H80M75 53.5714H70"  stroke-width="0.714286"/>
<path d="M75 70V75M75 80V75M75 75H80M75 75H70"  stroke-width="0.714286"/>
<path d="M75 91.4286V96.4286M75 101.429V96.4286M75 96.4286H80M75 96.4286H70"  stroke-width="0.714286"/>
<path d="M75 112.857V117.857M75 122.857V117.857M75 117.857H80M75 117.857H70"  stroke-width="0.714286"/>
<path d="M75 134.286V139.286M75 144.286V139.286M75 139.286H80M75 139.286H70"  stroke-width="0.714286"/>
<path d="M96.4297 5.71429V10.7143M96.4297 15.7143V10.7143M96.4297 10.7143H101.43M96.4297 10.7143H91.4297"  stroke-width="0.714286"/>
<path d="M96.4297 27.1429V32.1429M96.4297 37.1429V32.1429M96.4297 32.1429H101.43M96.4297 32.1429H91.4297"  stroke-width="0.714286"/>
<path d="M96.4297 48.5714V53.5714M96.4297 58.5714V53.5714M96.4297 53.5714H101.43M96.4297 53.5714H91.4297"  stroke-width="0.714286"/>
<path d="M96.4297 70V75M96.4297 80V75M96.4297 75H101.43M96.4297 75H91.4297"  stroke-width="0.714286"/>
<path d="M96.4297 91.4286V96.4286M96.4297 101.429V96.4286M96.4297 96.4286H101.43M96.4297 96.4286H91.4297"  stroke-width="0.714286"/>
<path d="M96.4297 112.857V117.857M96.4297 122.857V117.857M96.4297 117.857H101.43M96.4297 117.857H91.4297"  stroke-width="0.714286"/>
<path d="M96.4297 134.286V139.286M96.4297 144.286V139.286M96.4297 139.286H101.43M96.4297 139.286H91.4297"  stroke-width="0.714286"/>
<path d="M117.855 5.71429V10.7143M117.855 15.7143V10.7143M117.855 10.7143H122.855M117.855 10.7143H112.855"  stroke-width="0.714286"/>
<path d="M117.855 27.1429V32.1429M117.855 37.1429V32.1429M117.855 32.1429H122.855M117.855 32.1429H112.855"  stroke-width="0.714286"/>
<path d="M117.855 48.5714V53.5714M117.855 58.5714V53.5714M117.855 53.5714H122.855M117.855 53.5714H112.855"  stroke-width="0.714286"/>
<path d="M117.855 70V75M117.855 80V75M117.855 75H122.855M117.855 75H112.855"  stroke-width="0.714286"/>
<path d="M117.855 91.4286V96.4286M117.855 101.429V96.4286M117.855 96.4286H122.855M117.855 96.4286H112.855"  stroke-width="0.714286"/>
<path d="M117.855 112.857V117.857M117.855 122.857V117.857M117.855 117.857H122.855M117.855 117.857H112.855"  stroke-width="0.714286"/>
<path d="M117.855 134.286V139.286M117.855 144.286V139.286M117.855 139.286H122.855M117.855 139.286H112.855"  stroke-width="0.714286"/>
<path d="M139.285 5.71429V10.7143M139.285 15.7143V10.7143M139.285 10.7143H144.285M139.285 10.7143H134.285"  stroke-width="0.714286"/>
<path d="M139.285 27.1429V32.1429M139.285 37.1429V32.1429M139.285 32.1429H144.285M139.285 32.1429H134.285"  stroke-width="0.714286"/>
<path d="M139.285 48.5714V53.5714M139.285 58.5714V53.5714M139.285 53.5714H144.285M139.285 53.5714H134.285"  stroke-width="0.714286"/>
<path d="M139.285 70V75M139.285 80V75M139.285 75H144.285M139.285 75H134.285"  stroke-width="0.714286"/>
<path d="M139.285 91.4286V96.4286M139.285 101.429V96.4286M139.285 96.4286H144.285M139.285 96.4286H134.285"  stroke-width="0.714286"/>
<path d="M139.285 112.857V117.857M139.285 122.857V117.857M139.285 117.857H144.285M139.285 117.857H134.285"  stroke-width="0.714286"/>
<path d="M139.285 134.286V139.286M139.285 144.286V139.286M139.285 139.286H144.285M139.285 139.286H134.285"  stroke-width="0.714286"/>
<path d="M160.715 5.71429V10.7143M160.715 15.7143V10.7143M160.715 10.7143H165.715M160.715 10.7143H155.715"  stroke-width="0.714286"/>
<path d="M160.715 27.1429V32.1429M160.715 37.1429V32.1429M160.715 32.1429H165.715M160.715 32.1429H155.715"  stroke-width="0.714286"/>
<path d="M160.715 48.5714V53.5714M160.715 58.5714V53.5714M160.715 53.5714H165.715M160.715 53.5714H155.715"  stroke-width="0.714286"/>
<path d="M160.715 70V75M160.715 80V75M160.715 75H165.715M160.715 75H155.715"  stroke-width="0.714286"/>
<path d="M160.715 91.4286V96.4286M160.715 101.429V96.4286M160.715 96.4286H165.715M160.715 96.4286H155.715"  stroke-width="0.714286"/>
<path d="M160.715 112.857V117.857M160.715 122.857V117.857M160.715 117.857H165.715M160.715 117.857H155.715"  stroke-width="0.714286"/>
<path d="M160.715 134.286V139.286M160.715 144.286V139.286M160.715 139.286H165.715M160.715 139.286H155.715"  stroke-width="0.714286"/>
<path d="M182.145 5.71429V10.7143M182.145 15.7143V10.7143M182.145 10.7143H187.145M182.145 10.7143H177.145"  stroke-width="0.714286"/>
<path d="M182.145 27.1429V32.1429M182.145 37.1429V32.1429M182.145 32.1429H187.145M182.145 32.1429H177.145"  stroke-width="0.714286"/>
<path d="M182.145 48.5714V53.5714M182.145 58.5714V53.5714M182.145 53.5714H187.145M182.145 53.5714H177.145"  stroke-width="0.714286"/>
<path d="M182.145 70V75M182.145 80V75M182.145 75H187.145M182.145 75H177.145"  stroke-width="0.714286"/>
<path d="M182.145 91.4286V96.4286M182.145 101.429V96.4286M182.145 96.4286H187.145M182.145 96.4286H177.145"  stroke-width="0.714286"/>
<path d="M182.145 112.857V117.857M182.145 122.857V117.857M182.145 117.857H187.145M182.145 117.857H177.145"  stroke-width="0.714286"/>
<path d="M182.145 134.286V139.286M182.145 144.286V139.286M182.145 139.286H187.145M182.145 139.286H177.145"  stroke-width="0.714286"/>
<path d="M203.57 5.71429V10.7143M203.57 15.7143V10.7143M203.57 10.7143H208.57M203.57 10.7143H198.57"  stroke-width="0.714286"/>
<path d="M203.57 27.1429V32.1429M203.57 37.1429V32.1429M203.57 32.1429H208.57M203.57 32.1429H198.57"  stroke-width="0.714286"/>
<path d="M203.57 48.5714V53.5714M203.57 58.5714V53.5714M203.57 53.5714H208.57M203.57 53.5714H198.57"  stroke-width="0.714286"/>
<path d="M203.57 70V75M203.57 80V75M203.57 75H208.57M203.57 75H198.57"  stroke-width="0.714286"/>
<path d="M203.57 91.4286V96.4286M203.57 101.429V96.4286M203.57 96.4286H208.57M203.57 96.4286H198.57"  stroke-width="0.714286"/>
<path d="M203.57 112.857V117.857M203.57 122.857V117.857M203.57 117.857H208.57M203.57 117.857H198.57"  stroke-width="0.714286"/>
<path d="M203.57 134.286V139.286M203.57 144.286V139.286M203.57 139.286H208.57M203.57 139.286H198.57"  stroke-width="0.714286"/>
<path d="M225 5.71429V10.7143M225 15.7143V10.7143M225 10.7143H230M225 10.7143H220"  stroke-width="0.714286"/>
<path d="M225 27.1429V32.1429M225 37.1429V32.1429M225 32.1429H230M225 32.1429H220"  stroke-width="0.714286"/>
<path d="M225 48.5714V53.5714M225 58.5714V53.5714M225 53.5714H230M225 53.5714H220"  stroke-width="0.714286"/>
<path d="M225 70V75M225 80V75M225 75H230M225 75H220"  stroke-width="0.714286"/>
<path d="M225 91.4286V96.4286M225 101.429V96.4286M225 96.4286H230M225 96.4286H220"  stroke-width="0.714286"/>
<path d="M225 112.857V117.857M225 122.857V117.857M225 117.857H230M225 117.857H220"  stroke-width="0.714286"/>
<path d="M225 134.286V139.286M225 144.286V139.286M225 139.286H230M225 139.286H220"  stroke-width="0.714286"/>
<path d="M246.43 5.71429V10.7143M246.43 15.7143V10.7143M246.43 10.7143H251.43M246.43 10.7143H241.43"  stroke-width="0.714286"/>
<path d="M246.43 27.1429V32.1429M246.43 37.1429V32.1429M246.43 32.1429H251.43M246.43 32.1429H241.43"  stroke-width="0.714286"/>
<path d="M246.43 48.5714V53.5714M246.43 58.5714V53.5714M246.43 53.5714H251.43M246.43 53.5714H241.43"  stroke-width="0.714286"/>
<path d="M246.43 70V75M246.43 80V75M246.43 75H251.43M246.43 75H241.43"  stroke-width="0.714286"/>
<path d="M246.43 91.4286V96.4286M246.43 101.429V96.4286M246.43 96.4286H251.43M246.43 96.4286H241.43"  stroke-width="0.714286"/>
<path d="M246.43 112.857V117.857M246.43 122.857V117.857M246.43 117.857H251.43M246.43 117.857H241.43"  stroke-width="0.714286"/>
<path d="M246.43 134.286V139.286M246.43 144.286V139.286M246.43 139.286H251.43M246.43 139.286H241.43"  stroke-width="0.714286"/>
<path d="M267.855 5.71429V10.7143M267.855 15.7143V10.7143M267.855 10.7143H272.855M267.855 10.7143H262.855"  stroke-width="0.714286"/>
<path d="M267.855 27.1429V32.1429M267.855 37.1429V32.1429M267.855 32.1429H272.855M267.855 32.1429H262.855"  stroke-width="0.714286"/>
<path d="M267.855 48.5714V53.5714M267.855 58.5714V53.5714M267.855 53.5714H272.855M267.855 53.5714H262.855"  stroke-width="0.714286"/>
<path d="M267.855 70V75M267.855 80V75M267.855 75H272.855M267.855 75H262.855"  stroke-width="0.714286"/>
<path d="M267.855 91.4286V96.4286M267.855 101.429V96.4286M267.855 96.4286H272.855M267.855 96.4286H262.855"  stroke-width="0.714286"/>
<path d="M267.855 112.857V117.857M267.855 122.857V117.857M267.855 117.857H272.855M267.855 117.857H262.855"  stroke-width="0.714286"/>
<path d="M267.855 134.286V139.286M267.855 144.286V139.286M267.855 139.286H272.855M267.855 139.286H262.855"  stroke-width="0.714286"/>
<path d="M289.285 5.71429V10.7143M289.285 15.7143V10.7143M289.285 10.7143H294.285M289.285 10.7143H284.285"  stroke-width="0.714286"/>
<path d="M289.285 27.1429V32.1429M289.285 37.1429V32.1429M289.285 32.1429H294.285M289.285 32.1429H284.285"  stroke-width="0.714286"/>
<path d="M289.285 48.5714V53.5714M289.285 58.5714V53.5714M289.285 53.5714H294.285M289.285 53.5714H284.285"  stroke-width="0.714286"/>
<path d="M289.285 70V75M289.285 80V75M289.285 75H294.285M289.285 75H284.285"  stroke-width="0.714286"/>
<path d="M289.285 91.4286V96.4286M289.285 101.429V96.4286M289.285 96.4286H294.285M289.285 96.4286H284.285"  stroke-width="0.714286"/>
<path d="M289.285 112.857V117.857M289.285 122.857V117.857M289.285 117.857H294.285M289.285 117.857H284.285"  stroke-width="0.714286"/>
<path d="M289.285 134.286V139.286M289.285 144.286V139.286M289.285 139.286H294.285M289.285 139.286H284.285"  stroke-width="0.714286"/>
</svg>
