<svg width="412" height="197" viewBox="0 0 412 197" fill="none" xmlns="http://www.w3.org/2000/svg">
<circle cx="8.82861" cy="8.82861" r="0.980952" />
<circle cx="8.82861" cy="28.4475" r="0.980952" />
<circle cx="8.82861" cy="48.0666" r="0.980952" />
<circle cx="8.82861" cy="67.6855" r="0.980952" />
<circle cx="8.82861" cy="87.3047" r="0.980952" />
<circle cx="8.82861" cy="106.924" r="0.980952" />
<circle cx="8.82861" cy="126.543" r="0.980952" />
<circle cx="8.82861" cy="146.162" r="0.980952" />
<circle cx="8.82861" cy="165.781" r="0.980952" />
<circle cx="8.82861" cy="185.4" r="0.980952" />
<circle cx="28.4458" cy="8.82861" r="0.980952" />
<circle cx="28.4458" cy="28.4475" r="0.980952" />
<circle cx="28.4458" cy="48.0666" r="0.980952" />
<circle cx="28.4458" cy="67.6855" r="0.980952" />
<circle cx="28.4458" cy="87.3047" r="0.980952" />
<circle cx="28.4458" cy="106.924" r="0.980952" />
<circle cx="28.4458" cy="126.543" r="0.980952" />
<circle cx="28.4458" cy="146.162" r="0.980952" />
<circle cx="28.4458" cy="165.781" r="0.980952" />
<circle cx="28.4458" cy="185.4" r="0.980952" />
<circle cx="48.0669" cy="8.82861" r="0.980952" />
<circle cx="48.0669" cy="28.4475" r="0.980952" />
<circle cx="48.0669" cy="48.0666" r="0.980952" />
<circle cx="48.0669" cy="67.6855" r="0.980952" />
<circle cx="48.0669" cy="87.3047" r="0.980952" />
<circle cx="48.0669" cy="106.924" r="0.980952" />
<circle cx="48.0669" cy="126.543" r="0.980952" />
<circle cx="48.0669" cy="146.162" r="0.980952" />
<circle cx="48.0669" cy="165.781" r="0.980952" />
<circle cx="48.0669" cy="185.4" r="0.980952" />
<circle cx="67.6841" cy="8.82861" r="0.980952" />
<circle cx="67.6841" cy="28.4475" r="0.980952" />
<circle cx="67.6841" cy="48.0666" r="0.980952" />
<circle cx="67.6841" cy="67.6855" r="0.980952" />
<circle cx="67.6841" cy="87.3047" r="0.980952" />
<circle cx="67.6841" cy="106.924" r="0.980952" />
<circle cx="67.6841" cy="126.543" r="0.980952" />
<circle cx="67.6841" cy="146.162" r="0.980952" />
<circle cx="67.6841" cy="165.781" r="0.980952" />
<circle cx="67.6841" cy="185.4" r="0.980952" />
<circle cx="87.3052" cy="8.82861" r="0.980952" />
<circle cx="87.3052" cy="28.4475" r="0.980952" />
<circle cx="87.3052" cy="48.0666" r="0.980952" />
<circle cx="87.3052" cy="67.6855" r="0.980952" />
<circle cx="87.3052" cy="87.3047" r="0.980952" />
<circle cx="87.3052" cy="106.924" r="0.980952" />
<circle cx="87.3052" cy="126.543" r="0.980952" />
<circle cx="87.3052" cy="146.162" r="0.980952" />
<circle cx="87.3052" cy="165.781" r="0.980952" />
<circle cx="87.3052" cy="185.4" r="0.980952" />
<circle cx="106.922" cy="8.82861" r="0.980952" />
<circle cx="106.922" cy="28.4475" r="0.980952" />
<circle cx="106.922" cy="48.0666" r="0.980952" />
<circle cx="106.922" cy="67.6855" r="0.980952" />
<circle cx="106.922" cy="87.3047" r="0.980952" />
<circle cx="106.922" cy="106.924" r="0.980952" />
<circle cx="106.922" cy="126.543" r="0.980952" />
<circle cx="106.922" cy="146.162" r="0.980952" />
<circle cx="106.922" cy="165.781" r="0.980952" />
<circle cx="106.922" cy="185.4" r="0.980952" />
<circle cx="126.543" cy="8.82861" r="0.980952" />
<circle cx="126.543" cy="28.4475" r="0.980952" />
<circle cx="126.543" cy="48.0666" r="0.980952" />
<circle cx="126.543" cy="67.6855" r="0.980952" />
<circle cx="126.543" cy="87.3047" r="0.980952" />
<circle cx="126.543" cy="106.924" r="0.980952" />
<circle cx="126.543" cy="126.543" r="0.980952" />
<circle cx="126.543" cy="146.162" r="0.980952" />
<circle cx="126.543" cy="165.781" r="0.980952" />
<circle cx="126.543" cy="185.4" r="0.980952" />
<circle cx="146.161" cy="8.82861" r="0.980952" />
<circle cx="146.161" cy="28.4475" r="0.980952" />
<circle cx="146.161" cy="48.0666" r="0.980952" />
<circle cx="146.161" cy="67.6855" r="0.980952" />
<circle cx="146.161" cy="87.3047" r="0.980952" />
<circle cx="146.161" cy="106.924" r="0.980952" />
<circle cx="146.161" cy="126.543" r="0.980952" />
<circle cx="146.161" cy="146.162" r="0.980952" />
<circle cx="146.161" cy="165.781" r="0.980952" />
<circle cx="146.161" cy="185.4" r="0.980952" />
<circle cx="165.782" cy="8.82861" r="0.980952" />
<circle cx="165.782" cy="28.4475" r="0.980952" />
<circle cx="165.782" cy="48.0666" r="0.980952" />
<circle cx="165.782" cy="67.6855" r="0.980952" />
<circle cx="165.782" cy="87.3047" r="0.980952" />
<circle cx="165.782" cy="106.924" r="0.980952" />
<circle cx="165.782" cy="126.543" r="0.980952" />
<circle cx="165.782" cy="146.162" r="0.980952" />
<circle cx="165.782" cy="165.781" r="0.980952" />
<circle cx="165.782" cy="185.4" r="0.980952" />
<circle cx="185.399" cy="8.82861" r="0.980952" />
<circle cx="185.399" cy="28.4475" r="0.980952" />
<circle cx="185.399" cy="48.0666" r="0.980952" />
<circle cx="185.399" cy="67.6855" r="0.980952" />
<circle cx="185.399" cy="87.3047" r="0.980952" />
<circle cx="185.399" cy="106.924" r="0.980952" />
<circle cx="185.399" cy="126.543" r="0.980952" />
<circle cx="185.399" cy="146.162" r="0.980952" />
<circle cx="185.399" cy="165.781" r="0.980952" />
<circle cx="185.399" cy="185.4" r="0.980952" />
<circle cx="205.02" cy="8.82861" r="0.980952" />
<circle cx="205.02" cy="28.4475" r="0.980952" />
<circle cx="205.02" cy="48.0666" r="0.980952" />
<circle cx="205.02" cy="67.6855" r="0.980952" />
<circle cx="205.02" cy="87.3047" r="0.980952" />
<circle cx="205.02" cy="106.924" r="0.980952" />
<circle cx="205.02" cy="126.543" r="0.980952" />
<circle cx="205.02" cy="146.162" r="0.980952" />
<circle cx="205.02" cy="165.781" r="0.980952" />
<circle cx="205.02" cy="185.4" r="0.980952" />
<circle cx="224.637" cy="8.82861" r="0.980952" />
<circle cx="224.637" cy="28.4475" r="0.980952" />
<circle cx="224.637" cy="48.0666" r="0.980952" />
<circle cx="224.637" cy="67.6855" r="0.980952" />
<circle cx="224.637" cy="87.3047" r="0.980952" />
<circle cx="224.637" cy="106.924" r="0.980952" />
<circle cx="224.637" cy="126.543" r="0.980952" />
<circle cx="224.637" cy="146.162" r="0.980952" />
<circle cx="224.637" cy="165.781" r="0.980952" />
<circle cx="224.637" cy="185.4" r="0.980952" />
<circle cx="244.258" cy="8.82861" r="0.980952" />
<circle cx="244.258" cy="28.4475" r="0.980952" />
<circle cx="244.258" cy="48.0666" r="0.980952" />
<circle cx="244.258" cy="67.6855" r="0.980952" />
<circle cx="244.258" cy="87.3047" r="0.980952" />
<circle cx="244.258" cy="106.924" r="0.980952" />
<circle cx="244.258" cy="126.543" r="0.980952" />
<circle cx="244.258" cy="146.162" r="0.980952" />
<circle cx="244.258" cy="165.781" r="0.980952" />
<circle cx="244.258" cy="185.4" r="0.980952" />
<circle cx="263.875" cy="8.82861" r="0.980952" />
<circle cx="263.875" cy="28.4475" r="0.980952" />
<circle cx="263.875" cy="48.0666" r="0.980952" />
<circle cx="263.875" cy="67.6855" r="0.980952" />
<circle cx="263.875" cy="87.3047" r="0.980952" />
<circle cx="263.875" cy="106.924" r="0.980952" />
<circle cx="263.875" cy="126.543" r="0.980952" />
<circle cx="263.875" cy="146.162" r="0.980952" />
<circle cx="263.875" cy="165.781" r="0.980952" />
<circle cx="263.875" cy="185.4" r="0.980952" />
<circle cx="283.497" cy="8.82861" r="0.980952" />
<circle cx="283.497" cy="28.4475" r="0.980952" />
<circle cx="283.497" cy="48.0666" r="0.980952" />
<circle cx="283.497" cy="67.6855" r="0.980952" />
<circle cx="283.497" cy="87.3047" r="0.980952" />
<circle cx="283.497" cy="106.924" r="0.980952" />
<circle cx="283.497" cy="126.543" r="0.980952" />
<circle cx="283.497" cy="146.162" r="0.980952" />
<circle cx="283.497" cy="165.781" r="0.980952" />
<circle cx="283.497" cy="185.4" r="0.980952" />
<circle cx="303.114" cy="8.82861" r="0.980952" />
<circle cx="303.114" cy="28.4475" r="0.980952" />
<circle cx="303.114" cy="48.0666" r="0.980952" />
<circle cx="303.114" cy="67.6855" r="0.980952" />
<circle cx="303.114" cy="87.3047" r="0.980952" />
<circle cx="303.114" cy="106.924" r="0.980952" />
<circle cx="303.114" cy="126.543" r="0.980952" />
<circle cx="303.114" cy="146.162" r="0.980952" />
<circle cx="303.114" cy="165.781" r="0.980952" />
<circle cx="303.114" cy="185.4" r="0.980952" />
<circle cx="322.735" cy="8.82861" r="0.980952" />
<circle cx="322.735" cy="28.4475" r="0.980952" />
<circle cx="322.735" cy="48.0666" r="0.980952" />
<circle cx="322.735" cy="67.6855" r="0.980952" />
<circle cx="322.735" cy="87.3047" r="0.980952" />
<circle cx="322.735" cy="106.924" r="0.980952" />
<circle cx="322.735" cy="126.543" r="0.980952" />
<circle cx="322.735" cy="146.162" r="0.980952" />
<circle cx="322.735" cy="165.781" r="0.980952" />
<circle cx="322.735" cy="185.4" r="0.980952" />
<circle cx="342.352" cy="8.82861" r="0.980952" />
<circle cx="342.352" cy="28.4475" r="0.980952" />
<circle cx="342.352" cy="48.0666" r="0.980952" />
<circle cx="342.352" cy="67.6855" r="0.980952" />
<circle cx="342.352" cy="87.3047" r="0.980952" />
<circle cx="342.352" cy="106.924" r="0.980952" />
<circle cx="342.352" cy="126.543" r="0.980952" />
<circle cx="342.352" cy="146.162" r="0.980952" />
<circle cx="342.352" cy="165.781" r="0.980952" />
<circle cx="342.352" cy="185.4" r="0.980952" />
<circle cx="361.973" cy="8.82861" r="0.980952" />
<circle cx="361.973" cy="28.4475" r="0.980952" />
<circle cx="361.973" cy="48.0666" r="0.980952" />
<circle cx="361.973" cy="67.6855" r="0.980952" />
<circle cx="361.973" cy="87.3047" r="0.980952" />
<circle cx="361.973" cy="106.924" r="0.980952" />
<circle cx="361.973" cy="126.543" r="0.980952" />
<circle cx="361.973" cy="146.162" r="0.980952" />
<circle cx="361.973" cy="165.781" r="0.980952" />
<circle cx="361.973" cy="185.4" r="0.980952" />
<circle cx="381.59" cy="8.82861" r="0.980952" />
<circle cx="381.59" cy="28.4475" r="0.980952" />
<circle cx="381.59" cy="48.0666" r="0.980952" />
<circle cx="381.59" cy="67.6855" r="0.980952" />
<circle cx="381.59" cy="87.3047" r="0.980952" />
<circle cx="381.59" cy="106.924" r="0.980952" />
<circle cx="381.59" cy="126.543" r="0.980952" />
<circle cx="381.59" cy="146.162" r="0.980952" />
<circle cx="381.59" cy="165.781" r="0.980952" />
<circle cx="381.59" cy="185.4" r="0.980952" />
<circle cx="401.211" cy="8.82861" r="0.980952" />
<circle cx="401.211" cy="28.4475" r="0.980952" />
<circle cx="401.211" cy="48.0666" r="0.980952" />
<circle cx="401.211" cy="67.6855" r="0.980952" />
<circle cx="401.211" cy="87.3047" r="0.980952" />
<circle cx="401.211" cy="106.924" r="0.980952" />
<circle cx="401.211" cy="126.543" r="0.980952" />
<circle cx="401.211" cy="146.162" r="0.980952" />
<circle cx="401.211" cy="165.781" r="0.980952" />
<circle cx="401.211" cy="185.4" r="0.980952" />
</svg>
